<!-- logo.svg -->
<svg width="40" height="40" viewBox="0 0 40 40" xmlns="http://www.w3.org/2000/svg">
  <defs>
    <linearGradient id="logoGradient" x1="0%" y1="0%" x2="100%" y2="100%">
      <stop offset="0%" style="stop-color:#667eea;stop-opacity:1" />
      <stop offset="100%" style="stop-color:#764ba2;stop-opacity:1" />
    </linearGradient>
  </defs>
  
  <!-- Fondo del logo -->
  <rect width="40" height="40" rx="8" fill="url(#logoGradient)"/>
  
  <!-- Icono de tecnología (chip/circuito) -->
  <g fill="white">
    <!-- Chip central -->
    <rect x="14" y="14" width="12" height="12" rx="2" fill="white"/>
    
    <!-- Conexiones del chip -->
    <rect x="8" y="18" width="6" height="1"/>
    <rect x="8" y="21" width="6" height="1"/>
    <rect x="26" y="18" width="6" height="1"/>
    <rect x="26" y="21" width="6" height="1"/>
    <rect x="18" y="8" width="1" height="6"/>
    <rect x="21" y="8" width="1" height="6"/>
    <rect x="18" y="26" width="1" height="6"/>
    <rect x="21" y="26" width="1" height="6"/>
    
    <!-- Detalles internos del chip -->
    <circle cx="17" cy="17" r="1" fill="#667eea"/>
    <circle cx="23" cy="17" r="1" fill="#667eea"/>
    <circle cx="17" cy="23" r="1" fill="#667eea"/>
    <circle cx="23" cy="23" r="1" fill="#667eea"/>
    <rect x="19" y="19" width="2" height="2" fill="#667eea"/>
  </g>
</svg>
